<svg width="47" height="46" viewBox="0 0 47 46" fill="none" xmlns="http://www.w3.org/2000/svg">
<path d="M26.0922 0.000407719C25.7491 0.517632 25.0418 1.01472 24.3351 1.09715C23.7899 1.51118 23.265 2.06993 22.7002 2.38014C22.6191 1.98688 22.8211 1.46965 22.8819 0.993956C23.4474 -0.372094 24.9214 0.10423 26.0922 0.000407719Z" fill="white"/>
<path d="M28.4141 0.393665C28.2925 1.57284 27.5054 2.66958 26.4752 3.29062C25.1835 3.82861 23.7296 4.09729 22.7805 5.27709H22.5988C22.3366 4.03563 22.902 2.81493 23.9519 2.09006C25.0417 1.86291 26.0111 1.36645 27.0615 0.993947C27.546 0.86936 27.9702 -0.434397 28.4141 0.393665Z" fill="white"/>
<path d="M17.2685 1.98691C16.8854 3.16671 17.0867 4.59443 17.5515 5.6704C18.0967 6.33235 18.5811 6.93263 19.308 7.34603C19.308 6.95277 18.8838 6.4777 18.6216 6.06367C17.8744 4.4906 18.0156 2.81497 18.1372 0.993992L18.3392 0.807741C19.0053 1.63517 19.1263 2.87664 19.8735 3.78713C21.428 4.67685 21.7306 6.56013 21.5293 8.25652C21.8516 9.99508 22.8615 11.4436 22.8818 13.3061L22.7001 13.9057C22.4981 13.5131 22.2961 12.9751 22.0137 12.5195C21.5489 11.2988 21.4077 9.93278 20.6605 8.83604C20.1761 8.33958 20.0951 7.57381 19.3884 7.2636C19.1263 7.44986 19.5904 7.71916 19.308 7.94632C18.5209 7.90479 18.2987 7.09812 17.6522 6.76714C16.2997 5.98061 14.9668 4.84234 14.8458 3.18748C14.9668 2.44184 14.9066 1.59364 15.6133 1.09718C16.4003 0.952463 17.0063 0.434609 17.7535 0.207458C18.0156 0.84927 17.2887 1.34573 17.2685 1.98691Z" fill="white"/>
<path d="M21.9125 0.890169C22.357 2.0492 21.9125 3.29067 21.9125 4.47047C20.5194 3.37373 18.8237 2.13163 18.9041 0.207458C19.8533 0.579961 21.2666 -0.185808 21.9125 0.890169Z" fill="white"/>
<path d="M32.0887 1.30415C30.9375 2.29707 29.8066 3.37368 29.666 4.96688C29.8674 5.64959 29.3222 6.14605 29.4843 6.66328C31.3617 5.1525 34.4708 6.18758 35.7834 3.68389C36.207 3.16666 36.9137 3.80785 37.4184 3.97333C38.1054 4.78063 39.2559 5.1739 39.4579 6.35307C38.8722 6.7048 38.1655 6.16682 37.5197 6.06362C35.5814 5.69112 34.5923 8.00856 32.5731 7.15974C31.463 7.30509 30.2112 7.5121 29.666 8.64974C28.8175 10.4091 28.5959 12.4163 27.8285 14.2165C27.6265 14.3612 27.2434 14.3612 27.0616 14.2165L26.859 13.8025C28.1514 11.9192 28.1109 9.45704 28.898 7.34599C28.2724 7.03578 27.8487 7.84307 27.2434 7.84307C26.5969 8.17405 25.8497 8.71204 25.5065 9.43628C25.6281 10.8225 25.5673 12.2709 26.2733 13.4092V14.1127C25.547 13.968 24.9012 14.382 24.4364 13.8025C25.4261 11.4227 23.0636 8.09099 26.0922 6.84953C27.4644 6.51855 28.5149 5.31862 28.9993 3.97333L29.0797 0.497486C30.0896 0.476721 31.4219 0.455328 32.0887 1.30415Z" fill="white"/>
<path d="M14.7453 1.69678C14.0183 3.53852 12.2815 4.9461 12.9077 7.34597C13.0894 9.16695 14.725 10.8224 16.4005 11.3195C18.036 11.3604 18.642 13.0367 19.3885 14.2165L19.4898 14.713L18.9041 14.6098C17.7941 13.7402 16.7031 12.354 15.0277 12.6227C12.7057 11.5058 11.2721 9.20848 10.8682 6.76708C10.9087 5.15249 11.1107 3.41457 12.4233 2.48331C13.0489 2.06991 13.8163 2.11081 14.4622 1.69678H14.7453Z" fill="white"/>
<path d="M34.7134 3.37372C34.7533 4.05643 34.3702 4.42894 33.8452 4.67685C32.4319 4.61519 31.2003 5.02859 30.1505 5.85665C29.9884 5.79436 30.0897 5.58734 30.0492 5.46338C30.5944 4.28358 31.4422 2.60795 32.9569 2.58719C33.6027 1.51121 34.5114 2.79421 34.7134 3.37372Z" fill="white"/>
<path d="M28.4142 3.08363C28.4142 3.91106 27.7069 4.44968 27.4448 5.17392C26.3348 6.14607 24.3959 5.91829 23.952 7.76004C23.3866 9.89123 24.5979 11.7953 24.0527 13.8025H23.952C24.1534 12.4371 23.346 11.402 22.7806 10.4292C22.155 9.14685 21.872 7.13962 22.7806 5.85663C24.4162 4.53211 26.5969 4.55287 28.1109 2.98043C28.2122 2.98043 28.3528 2.95967 28.4142 3.08363Z" fill="white"/>
<path d="M15.0276 5.77353C16.2187 8.505 19.833 7.75999 20.6606 10.74C21.1456 11.816 21.4078 13.0159 21.4281 14.2989L21.2463 14.5059C20.4187 13.6779 20.237 12.2508 19.1061 11.6297C17.9353 11.2572 16.8044 10.8023 15.714 10.2436C14.1393 8.52576 14.1595 6.04284 13.9778 3.87012C14.6642 4.18033 14.8662 5.04929 15.0276 5.77353Z" fill="white"/>
<path d="M10.5856 8.7536C11.5551 10.2021 13.1298 11.5675 13.8764 13.223C13.998 14.1335 13.1704 14.6715 13.2913 15.6027L13.0893 15.789C12.5239 14.7954 11.8172 13.6779 11.1511 12.6227C10.6667 12.2508 10.1215 12.0438 9.61683 11.733C7.86032 10.5746 8.88991 8.33957 8.72844 6.56012C8.60688 6.08443 8.52645 5.35956 8.82913 4.96692C9.69726 6.02213 9.41484 7.71916 10.5856 8.7536Z" fill="white"/>
<path d="M7.96107 5.85664C7.73882 7.76005 6.972 10.2637 8.64747 11.733C9.53585 11.9815 10.404 12.3125 10.7674 13.223C10.6465 13.6163 10.9897 13.9265 10.8681 14.2165C10.4648 14.2373 10.4648 13.8025 10.1013 13.7201C8.88998 13.0367 7.61788 12.5403 6.12414 12.6227C5.63912 12.4371 5.55869 11.9192 5.43713 11.526C5.43713 11.2781 5.45739 10.7608 5.33644 10.4292C5.07367 9.27083 5.31618 8.07089 6.12414 7.26359C6.83018 6.82943 7.03217 5.83588 7.96107 5.85664Z" fill="white"/>
<path d="M40.4273 7.0566C40.7699 7.65688 41.8001 8.25653 41.5981 9.04306C39.6802 8.46355 37.3177 8.02938 35.299 8.6498C34.2891 8.69133 33.4418 9.16702 32.6738 9.74654C31.6037 10.0775 30.6146 10.8024 29.8674 11.733C29.6053 11.7953 29.6452 12.271 29.2823 12.3125C28.9993 12.0438 29.4235 11.8576 29.2823 11.526C29.9079 10.0158 30.9375 8.40188 32.6738 8.15334C34.2891 6.68409 36.4698 8.07091 38.2871 7.34604C39.014 7.28438 39.7403 6.93264 40.4273 7.0566Z" fill="white"/>
<path d="M41.9812 9.8296C41.1339 10.4091 39.9423 10.5746 38.9735 11.1327C37.5196 11.7538 36.5103 10.119 34.9957 10.2436C34.491 10.2021 33.9053 10.3053 33.4418 10.1398C34.8747 8.87758 37.1967 8.81529 39.0741 9.04307C40.043 9.31238 40.9522 9.70564 41.9812 9.8296Z" fill="white"/>
<path d="M4.67033 12.23C4.93249 12.8505 5.45741 13.2645 5.92217 13.6162C7.25444 13.72 9.15216 13.223 9.89933 14.7954C10.6668 15.9129 11.6356 16.7202 13.009 16.7825C13.0692 17.2167 13.2711 17.5892 13.1901 18.0856C12.403 18.1479 11.9389 17.4029 11.1512 17.3821C9.5764 16.2445 6.99167 17.6307 5.53845 16.203L3.39823 14.2165C3.15572 14.6714 3.64012 15.1062 3.88263 15.4995C4.56903 17.1135 6.42684 17.0304 7.75911 17.693L8.72853 17.7754C8.80896 18.2517 8.28403 18.1064 8.06178 18.2719C5.74044 19.514 4.06436 17.4029 2.24707 16.4924C1.92414 15.3334 2.46932 14.175 2.14639 13.0159C2.83278 12.8712 2.71183 13.9887 3.2165 13.8025C2.95373 12.6434 3.09555 11.1327 3.60022 10.0366C3.80221 9.82954 4.20557 9.5401 4.28661 10.0366L4.67033 12.23Z" fill="white"/>
<path d="M40.9117 12.023C41.7191 11.7953 42.2237 10.9055 43.052 10.74C42.325 11.8777 41.6184 13.1198 40.528 14.0095C39.0539 14.1542 37.6811 13.4092 36.2678 13.1198C34.8342 12.9128 33.2392 13.1607 31.9874 12.5195C30.3721 12.0646 29.7465 14.0303 28.4142 14.2989C28.8783 13.1399 30.1099 12.23 31.0186 11.3196C34.693 8.8983 37.1967 14.2989 40.9117 12.023Z" fill="white"/>
<path d="M45.6563 15.789L45.959 17.8786C43.8998 16.4924 41.3758 16.2653 39.1754 17.486C37.3987 17.4445 36.1063 16.203 34.7133 15.2094C34.3295 15.5404 34.9349 15.996 34.9957 16.3892C35.8036 17.7547 37.2771 18.3342 38.6904 18.6859C39.2356 19.0584 40.0233 19.1207 40.4273 19.6795C41.9812 21.7276 44.2025 22.5758 46.4434 23.1559C46.5649 23.838 46.5846 24.583 46.6251 25.328C45.838 25.7012 45.2726 24.8523 44.5862 24.6453C43.7174 24.1489 42.7081 23.1968 42.0825 22.3486C40.7901 21.4797 40.3462 19.9689 38.6904 19.8657C36.9339 19.9274 35.4402 19.1408 34.3295 17.8786C34.289 16.8857 33.9661 15.8922 34.2282 14.8992C34.087 14.7545 33.7641 14.506 34.0262 14.2989C35.501 14.6299 36.8332 15.3334 38.489 15.2094C40.5685 14.92 42.6277 14.5884 44.3038 13.306C45.3131 13.8025 45.1111 15.0024 45.6563 15.789Z" fill="white"/>
<path d="M1.17697 16.7825C2.12614 18.0032 3.3172 19.0169 4.56904 19.6795C7.01195 20.0929 8.89002 18.438 11.0701 17.8786C12.5848 17.817 13.5339 19.1409 14.9472 19.3687C15.1891 19.7003 15.5729 19.5549 15.8154 19.8657C15.3506 20.1967 14.4622 19.7003 13.8765 19.8657C12.4436 19.845 10.7877 19.8034 9.61693 20.6724L9.89935 20.9625C11.7572 21.2935 13.6346 21.2935 15.3303 20.5686C15.916 21.0864 15.4715 22.0794 15.3303 22.7419C14.9871 22.9697 14.6439 22.5557 14.2602 22.5557C12.605 22.7004 11.0302 22.9899 9.51563 23.4454C5.69994 22.8451 5.69994 28.3081 2.0451 28.3081C1.56069 28.2458 0.955338 28.4943 0.59188 28.1218C0.955338 26.942 -0.0140873 26.3424 0.00617298 25.3281C1.37896 25.6804 3.09556 26.0315 4.28663 25.0386C5.63915 23.7971 6.60858 21.9139 8.24353 20.9625C7.88007 20.5485 7.3355 21.0864 6.891 20.7555C5.41691 20.8794 3.3172 21.8516 2.1464 20.3622C1.94441 19.0792 0.894557 18.0857 0.975598 16.7825H1.17697Z" fill="white"/>
<path d="M45.959 19.3686C46.8474 20.1136 47.0494 21.4589 46.8278 22.6588L46.6252 22.8451C45.7976 20.9417 43.3749 21.7276 42.0826 20.3622C41.2347 19.7411 40.1038 19.1408 39.6599 18.1894C40.1443 17.9824 40.5686 18.4996 41.0124 18.6859C42.4865 19.3478 44.3437 18.9967 45.959 19.3686Z" fill="white"/>
<path d="M29.7667 18.8721C29.5039 19.5964 29.6249 20.7347 28.5959 20.8586C27.869 21.0864 27.3643 19.5549 26.7577 20.6724C26.6374 21.1072 27.0813 22.2039 26.3746 22.3486C25.8902 21.3758 25.4052 20.4452 24.9214 19.4724C25.3248 19.4309 25.8098 19.7411 26.2733 19.8657C26.9394 19.4517 27.2225 18.8099 27.9291 18.4789C28.5351 18.6035 29.2012 18.6035 29.7667 18.8721Z" fill="white"/>
<path d="M35.8645 20.7554C37.2569 21.5413 38.4688 20.0928 39.8416 20.8586C38.1655 20.9826 36.9947 23.0936 34.9957 22.3486C34.9755 21.9969 34.5924 22.1208 34.4106 21.9553C33.7439 20.5899 32.2704 20.3823 31.0186 19.9689C31.1389 19.5548 31.7049 19.3686 32.0887 19.183C32.694 19.183 33.1183 18.3549 33.7439 18.6859C34.2891 19.5139 34.9755 20.3206 35.8645 20.7554Z" fill="white"/>
<path d="M20.4585 19.6794C20.6605 19.7203 20.8828 19.8449 21.0442 20.072C21.4279 20.072 21.7509 19.3069 22.1143 19.8657C21.5084 20.7969 21.0847 21.7483 21.1455 22.9489C20.9638 22.9489 20.8828 22.7419 20.7618 22.6588C20.6808 22.0793 20.0552 21.5413 20.5598 20.9624L20.3578 20.7554C20.0951 20.8586 19.9133 21.1688 19.6917 21.355C19.0053 21.5621 18.4798 21.0864 18.1372 20.6723C18.0561 20.3206 17.9352 19.8858 17.5515 19.7618C17.511 19.1408 18.2784 19.327 18.6216 19.0791C19.308 19.1207 20.0951 18.8721 20.4585 19.6794Z" fill="white"/>
<path d="M6.02281 22.2455C5.74039 22.7828 4.97296 22.5758 4.56898 23.0521C3.76164 23.7348 2.7523 24.583 1.56063 24.2319C0.329047 23.5901 -0.0546708 22.2241 0.00611014 20.8586L0.106798 20.7554C-0.155358 20.5686 0.208099 20.4245 0.106798 20.1759L0.308787 19.8657C1.58089 21.8107 3.8218 22.8036 6.02281 22.2455Z" fill="white"/>
<path d="M34.814 23.0521C35.3193 23.4038 36.0861 23.6524 36.6515 23.2383C37.6203 23.0313 38.2263 21.6244 39.3572 22.1624C39.9828 21.9138 40.528 22.5556 41.1131 22.7419C42.5878 24.2728 44.0416 26.0522 46.242 26.2177C44.7882 26.8388 43.435 26.0113 42.1636 25.5356C41.1941 24.7283 39.9423 23.7971 38.7715 24.4383C37.9838 25.4526 36.813 25.949 35.5814 25.6388C34.4505 25.1424 33.381 24.4383 32.29 23.838C32.2096 22.8451 31.6847 21.9346 31.6036 21.0656C32.7744 21.5004 33.6432 22.5965 34.814 23.0521Z" fill="white"/>
<path d="M15.2296 23.5485C15.1492 24.4383 14.5027 25.1833 13.7758 25.7212C12.5442 26.2177 11.3329 25.8251 10.1013 26.3215C9.03117 27.2736 8.46572 28.5767 7.67802 29.6948C7.15371 30.0667 6.76999 30.5631 6.12412 30.7909C4.367 32.0116 2.87326 30.1913 1.37891 29.6111V29.5079C4.4683 29.6741 7.11319 28.0595 8.82918 25.4318C9.73782 24.7906 10.9694 25.0385 12.0395 24.8315C13.0894 24.6868 14.0385 24.2111 14.8459 23.4453C14.9668 23.4661 15.1492 23.3623 15.2296 23.5485Z" fill="white"/>
<path d="M37.136 25.9283C37.9838 25.8874 38.7513 26.3216 39.1755 26.9219C39.1958 27.0251 39.1147 27.0666 39.0742 27.1283C39.1755 27.3353 39.3161 27.0874 39.4579 27.1283C40.528 27.6461 41.3962 28.5767 42.365 29.3016C41.9211 29.4463 41.7191 29.0531 41.3962 28.9083C39.7207 27.6461 37.6001 28.763 35.7834 28.9083C35.1376 28.763 34.4106 28.8668 33.9256 28.3081C33.2595 28.1841 32.7745 27.6461 32.19 27.3145C31.6644 26.9628 31.1193 26.5903 30.5336 26.3216C30.4531 25.3903 31.6847 25.3903 31.9874 24.6453C33.4007 25.8044 35.299 27.0049 37.136 25.9283Z" fill="white"/>
<path d="M45.2725 27.1282C45.7373 27.1905 46.242 27.2937 46.4433 27.8116C46.242 29.5287 44.9293 30.8117 44.5861 32.3842C44.3436 31.536 44.324 30.6255 43.8187 29.9012C42.5263 28.2873 40.4272 27.5838 39.7402 25.5357L39.8415 25.1424C41.2948 26.6733 43.1931 27.7493 45.2725 27.1282Z" fill="white"/>
<path d="M16.2998 25.9283C16.239 26.9627 15.3709 27.2736 14.644 27.8116C13.5739 28.2457 12.3226 28.5566 11.7369 29.6948C11.3735 31.1635 12.2011 33.3777 10.6668 34.4744C9.37445 35.5712 8.24356 36.6056 7.09302 37.8477C7.497 36.3577 8.60702 35.1572 9.21298 33.771C11.131 32.0324 7.96114 27.9355 11.6356 27.4183C12.9685 26.942 14.4622 26.9011 15.4317 25.5356C15.7546 25.2248 16.1788 25.5973 16.2998 25.9283Z" fill="white"/>
<path d="M25.6078 25.6388C26.1118 25.6388 26.5968 25.949 26.859 26.3215C26.8387 27.1704 26.0922 27.7077 25.4052 28.0186C25.062 28.5767 24.4364 29.1562 24.8201 29.9012C25.3247 30.9772 26.5766 30.7287 27.546 30.8948C28.7162 31.1433 29.6856 30.6255 30.3518 29.6948C30.17 29.6111 30.2713 29.384 30.2511 29.1977L30.3518 29.1153C31.5029 29.8603 33.0169 30.005 34.0262 30.8948C34.2687 31.2874 34.5923 31.7222 34.9957 32.0947C35.9645 33.3576 37.4386 34.392 37.9033 35.8613C37.8628 36.7088 37.2372 37.3299 37.3176 38.2404C36.813 39.254 37.802 39.9166 38.287 40.6207C37.802 41.3443 37.1967 41.5929 36.5502 42.1101L36.2678 41.9238C35.6618 40.3722 34.8747 38.4266 36.1671 36.9574C36.3083 36.1922 36.6312 35.3849 36.1671 34.6607C35.5409 33.3985 34.2282 33.3985 33.4418 32.2803C32.5927 31.9292 31.8658 31.2874 31.1192 30.6878C30.9982 31.1433 31.4421 31.5982 31.7049 31.9915C33.1587 33.3985 36.288 34.3505 35.1977 37.1436C34.0465 39.0055 35.8441 41.3651 34.4106 43.1036H34.2282C34.1275 42.2756 33.6431 41.6136 33.6431 40.7233C33.0783 40.2885 33.2392 39.4409 33.3601 38.8406C33.8654 37.9301 33.6235 36.6056 33.5418 35.5712C32.8352 33.9987 31.5434 33.0467 30.5335 31.7845C30.0896 31.6813 29.5647 31.1433 29.181 31.495C29.5242 32.1155 30.17 32.4055 30.6348 32.9851C31.463 33.6262 32.5122 33.9157 32.7744 35.0747C33.0169 36.7302 31.9474 37.8685 32.1899 39.5441C32.0278 41.0757 32.7548 42.2341 33.4418 43.4139C33.6235 43.8065 33.1992 44.055 32.9567 44.2004C32.3103 44.3445 32.1083 43.3516 31.5029 43.4139C30.695 44.6761 29.3222 45.0278 28.1108 45.5035C28.3128 44.9454 28.5959 44.4483 28.9992 44.0135C29.9687 42.1724 30.695 40.2061 30.6348 37.9509C30.5132 36.7711 30.5943 35.5296 29.7667 34.6607C29.4032 33.6671 28.9182 32.7365 28.6965 31.6813C27.9899 31.1634 27.3238 31.9292 26.4753 31.6813C25.0417 32.0116 23.6689 30.3561 22.4981 31.7845C21.6503 31.9085 20.7619 31.9085 19.9742 32.1778C20.1964 32.9643 21.63 33.4809 20.9436 34.3712C20.1559 35.468 19.1871 36.3986 18.521 37.6401C17.8137 38.3643 17.5313 39.4409 17.2685 40.4345C17.2083 42.1101 17.7333 43.6825 17.7535 45.1933C16.9259 43.5586 15.6735 41.5513 16.5821 39.4409C16.5422 38.1781 15.9362 36.8749 16.2997 35.6542C17.4502 34.4543 18.7831 33.6671 19.308 32.0947C19.1466 31.9292 18.9041 31.619 18.7223 31.8877C18.0157 32.5918 17.4502 33.2537 16.7841 33.771C15.593 34.8268 15.8755 36.4817 15.4316 37.8477C15.1491 39.8757 15.3106 42.1101 14.1595 43.8065C13.3319 43.7241 12.8069 42.8966 11.9388 42.9174C11.4741 42.6689 10.9491 42.3379 10.6667 41.8207C10.5052 41.5513 10.6059 41.1581 10.5857 40.8271C11.676 39.9581 13.4933 39.1924 13.5738 37.5576C14.1189 36.2747 13.6345 34.5984 14.2602 33.3777C14.1392 33.1505 13.9777 33.3777 13.8764 33.4809C13.2508 34.2058 13.4325 35.2817 12.9076 36.0676C12.9076 36.9574 12.1604 37.5576 12.1205 38.4474C11.3126 39.6272 10.3438 40.4345 9.13184 41.0335C9.2534 40.3306 10.0607 39.9374 10.3837 39.3377C11.6963 37.0612 12.7056 34.5367 12.1205 31.5982C12.6854 29.177 15.5525 29.1361 16.4004 27.025C16.5625 26.6733 16.9456 26.6733 17.1678 26.9218C17.5313 27.3774 17.8947 27.8116 17.9353 28.4118C17.794 30.2322 15.8355 31.5359 14.7452 32.6742L14.8459 32.7774C15.714 32.157 16.7841 32.0116 17.6522 31.3912C19.0054 30.667 20.8024 31.6605 22.1144 30.7909C22.7406 30.4184 23.4473 30.0258 23.5682 29.1977C22.9021 27.6461 20.5194 28.2873 20.3579 26.3215C21.2463 25.5973 22.4171 26.5487 23.1845 25.5356C23.9919 25.8043 24.7593 26.0113 25.6078 25.6388Z" fill="white"/>
<path d="M32.9567 28.4118C35.0564 29.7357 37.6203 29.8181 39.7402 30.9979C40.7097 31.9084 41.113 33.1713 40.9117 34.4744C40.5077 35.8814 42.5669 36.8542 41.1941 38.0541C40.8306 38.3851 40.7097 39.0055 40.2253 39.1307C40.0841 37.1235 40.5279 34.6405 39.2558 32.985C37.6 30.75 34.8747 30.7286 32.6737 29.6111C31.6846 28.9907 30.4125 28.2457 29.9686 27.1282L30.0491 26.818C31.1799 27.0049 32.0683 27.9154 32.9567 28.4118Z" fill="white"/>
<path d="M9.03121 29.1154C8.91026 30.1498 8.18334 31.1843 8.72853 32.2804C8.95078 34.0397 7.01193 34.6406 6.89098 36.2539C6.40657 36.7712 6.5883 37.5992 6.40657 38.2404C5.57836 38.0541 5.41689 37.3299 5.15473 36.6472C5.13447 35.4057 5.45741 34.3505 6.02286 33.3777C5.49793 33.0468 5.03378 33.4608 4.46834 33.1714C3.61986 32.6535 2.95373 32.157 2.24707 31.4951C3.39822 31.412 4.65007 32.0532 5.92217 31.6813C7.31522 31.5159 7.92057 29.7565 9.03121 29.1154Z" fill="white"/>
<path d="M44.0207 32.6742C43.7788 34.1642 42.9708 35.4057 42.1635 36.6472C41.2549 34.5776 42.2439 31.3082 39.6598 30.2945C39.2159 30.0667 38.7309 29.7773 38.489 29.3016C40.3462 30.3776 43.7991 29.6533 44.0207 32.6742Z" fill="white"/>
<path d="M37.7217 33.0877C39.4376 34.1643 39.6802 36.3364 39.3572 38.3442C39.4376 38.8407 40.0633 39.3378 39.5586 39.8336C39.2559 40.1237 38.8925 40.1652 38.5898 39.9374C36.9137 38.0957 39.4782 35.385 37.5197 33.5848C37.1967 33.0053 36.4698 32.6126 36.2678 31.9916C36.8934 32.2194 37.1562 32.7158 37.7217 33.0877Z" fill="white"/>
<path d="M29.5647 35.8613C29.6856 36.3363 29.8066 37.0813 29.383 37.4538C29.0195 38.8193 28.9182 40.3093 28.6966 41.7168C28.656 39.9166 28.1716 38.3027 27.2433 36.8542C26.6975 36.1299 25.8902 35.4057 25.6078 34.6607C26.7577 34.3505 27.2225 33.3777 27.9291 32.488C29.06 33.2739 27.5657 35.6127 29.5647 35.8613Z" fill="white"/>
<path d="M22.7001 34.6607C22.0536 36.0677 20.701 36.9782 21.2462 38.7369C22.1549 39.6064 23.4472 40.8271 22.7805 42.4204C22.5785 43.1861 22.4778 44.0136 22.1143 44.6969C22.2758 45.1317 21.8117 45.2965 21.9124 45.6904C21.5692 44.9656 21.8117 43.8487 21.3273 43.1037C21.3273 42.689 20.7618 42.5449 20.7618 42.1101L18.8236 40.1237C18.6013 39.5026 19.1263 38.8614 19.4897 38.4474C20.4788 37.206 21.4077 35.9437 21.4279 34.2675C21.9124 34.2467 22.3974 34.2467 22.7001 34.6607Z" fill="white"/>
<path d="M24.5371 34.8677C23.9716 35.5089 23.7297 36.3162 23.1845 36.9574C23.1845 37.6193 22.7406 38.3442 23.1845 38.9439C23.952 40.1652 26.0111 40.1237 26.0922 41.8207C26.0517 43.4139 25.2038 44.7585 23.75 45.2965L22.9825 46C22.4981 45.3796 23.0636 44.5515 23.265 43.9103C23.4872 42.9174 24.1134 41.7169 23.4669 40.7233C22.9021 39.5026 21.3875 38.4682 22.1144 36.9574C22.538 36.2331 22.7805 35.4472 23.3663 34.7639C23.7095 34.6406 24.2749 34.5367 24.5371 34.8677Z" fill="white"/>
<path d="M25.0221 34.8677C26.1524 37.8056 28.6966 40.3722 28.1109 43.8065C28.0703 44.179 27.6872 44.4276 27.6265 44.7994C27.182 45.3796 26.4956 45.4211 25.9909 45.8968C25.87 45.8761 25.668 45.9591 25.6078 45.7936C26.3949 44.0551 27.3238 42.0271 26.657 40.0406C25.87 38.8407 24.6783 38.4266 24.3351 36.9574C24.356 36.2124 24.6586 35.5712 24.8201 34.8677H25.0221Z" fill="white"/>
<path d="M21.0443 44.6969C21.1855 45.0071 21.1855 45.5036 21.0443 45.7937C20.8024 45.8968 20.7214 45.5866 20.5599 45.5036C19.7925 45.318 18.5812 45.5659 18.4197 44.51C18.2582 42.9791 18.3994 41.3236 17.9353 39.9374C18.7832 41.5306 20.0755 43.1654 21.0443 44.6969Z" fill="white"/>
</svg>
