<svg width="25" height="20" viewBox="0 0 25 20" fill="none" xmlns="http://www.w3.org/2000/svg">
<g clip-path="url(#clip0_3_37)">
<path d="M18.6704 6.86034C15.7662 5.56084 11.1048 3.47416 3.87472 0.235517C3.38727 -0.0220226 2.82643 -0.0557726 2.34186 0.0754386L14.7467 9.99929L18.6704 6.86034Z" fill="#11A2A6"/>
<path d="M2.34188 0.0755196C2.25106 0.100129 2.16269 0.129817 2.07816 0.165676C1.54306 0.397239 1.14984 0.842826 1.14984 1.40638V18.5924C1.14984 19.1559 1.54301 19.6015 2.07816 19.833C2.16254 19.8688 2.25087 19.8986 2.34159 19.9234L14.7467 9.99937L2.34188 0.0755196Z" fill="#11A2A6"/>
<path d="M14.7467 9.99924L2.34161 19.9233C2.82633 20.0555 3.38717 20.0243 3.87477 19.763C10.8864 16.622 15.4952 14.56 18.433 13.2495C18.5148 13.2127 18.5949 13.1768 18.6741 13.1412L14.7467 9.99924Z" fill="#11A2A6"/>
<path d="M1.14984 9.99924V18.5922C1.14984 19.1558 1.54301 19.6014 2.07816 19.8329C2.16254 19.8687 2.25087 19.8985 2.34159 19.9233L14.7467 9.99924H1.14984Z" fill="#2C9FD9"/>
<path d="M3.87477 0.235469C3.29591 -0.0703124 2.61329 -0.0616014 2.07819 0.165587L14.5584 10.1498L18.6704 6.86029C15.7662 5.56079 11.1049 3.47411 3.87477 0.235469Z" fill="#11A2A6"/>
<path d="M3.87477 0.235469C3.29591 -0.0703124 2.61329 -0.0616014 2.07819 0.165587L14.5584 10.1498L18.6704 6.86029C15.7662 5.56079 11.1049 3.47411 3.87477 0.235469Z" stroke="white"/>
<path d="M14.5585 9.84869L2.07819 19.8329C2.61334 20.06 3.29591 20.0732 3.87477 19.763C10.8864 16.622 15.4952 14.56 18.433 13.2495L18.6741 13.1412L14.5585 9.84869Z" fill="#2C9FD9"/>
<path d="M14.5585 9.84869L2.07819 19.8329C2.61334 20.06 3.29591 20.0732 3.87477 19.763C10.8864 16.622 15.4952 14.56 18.433 13.2495L18.6741 13.1412L14.5585 9.84869Z" stroke="black"/>
<path d="M23.8502 9.99924C23.8502 9.52307 23.5498 9.04252 22.9545 8.77603C22.9545 8.77603 21.8413 8.27912 18.429 6.75224L14.3703 9.99924L18.433 13.2494C21.8078 11.7335 22.9545 11.2224 22.9545 11.2224C23.5498 10.956 23.8502 10.4754 23.8502 9.99924Z" fill="#11A2A6"/>
<path d="M22.9545 11.2224C23.5498 10.956 23.8502 10.4754 23.8502 9.99924H14.3703L18.433 13.2494C21.8079 11.7336 22.9545 11.2224 22.9545 11.2224Z" fill="#2C9FD9"/>
<line y1="-0.09" x2="20.7185" y2="-0.09" transform="matrix(0.804433 0.594043 -0.654931 0.755689 3.33331 0)" stroke="white" stroke-width="0.18"/>
<line y1="-0.09" x2="20.7185" y2="-0.09" transform="matrix(0.804433 -0.594043 0.654931 0.755689 3.33331 20)" stroke="white" stroke-width="0.18"/>
</g>
<defs>
<clipPath id="clip0_3_37">
<rect width="25" height="20" fill="white"/>
</clipPath>
</defs>
</svg>
